{
.appVersion = "983";
copyright = "Copyright 2016 Google Inc. All Rights Reserved.";
customParameters = (
{
name = description;
value = "Designed by Monotype design team.";
},
{
name = license;
value = "This Font Software is licensed under the SIL Open Font License, Version 1.1. This Font Software is distributed on an \"AS IS\" BASIS, WITHOUT WARRANTIES OR CONDITIONS OF ANY KIND, either express or implied. See the SIL Open Font License for the specific language, permissions and limitations governing your use of this Font Software.";
},
{
name = licenseURL;
value = "http://scripts.sil.org/OFL";
},
{
name = vendorID;
value = GOOG;
},
{
name = trademark;
value = "Noto is a trademark of Google Inc.";
},
{
name = fsType;
value = (
);
},
{
name = panose;
value = (
2,
11,
5,
2,
4,
5,
4,
2,
2,
4
);
},
{
name = codePageRanges;
value = (
1252
);
}
);
date = "2016-11-10 17:39:52 +0000";
designer = "Monotype Design Team";
designerURL = "http://www.monotype.com/studio";
disablesNiceNames = 1;
familyName = "Noto Sans Samaritan";
features = (
{
code = "sub [uni0816 uni0817 ] uni0818' by g65 ;\012sub uni0818' [uni081C uni081D uni081E uni081F uni0820 uni0821 uni0822 uni0823 uni0825 uni0826 uni0827 uni0829 uni082A uni082B ] by g65 ;\012sub [uni080D uni080E ] uni0818' by g65 ;\012";
name = calt;
}
);
fontMaster = (
{
ascender = 2189;
capHeight = 0;
customParameters = (
{
name = typoAscender;
value = 2189;
},
{
name = typoDescender;
value = -600;
},
{
name = typoLineGap;
value = 0;
},
{
name = winAscent;
value = 2189;
},
{
name = winDescent;
value = 600;
},
{
name = hheaAscender;
value = 2189;
},
{
name = hheaDescender;
value = -600;
},
{
name = underlinePosition;
value = -205;
},
{
name = underlineThickness;
value = 102;
}
);
descender = -600;
id = "4E00A5E8-150E-4B16-AABA-1F51DF776701";
weightValue = 400;
widthValue = 5;
xHeight = 0;
}
);
glyphs = (
{
glyphname = uni0800;
lastChange = "2016-11-10 17:39:38 +0000";
layers = (
{
layerId = "4E00A5E8-150E-4B16-AABA-1F51DF776701";
paths = (
{
closed = 1;
nodes = (
"462 0 LINE",
"437 54 OFFCURVE",
"425 134 OFFCURVE",
"425 239 CURVE SMOOTH",
"425 488 OFFCURVE",
"504 790 OFFCURVE",
"633 1015 CURVE",
"821 859 OFFCURVE",
"947 569 OFFCURVE",
"1046 141 CURVE",
"1159 119 LINE",
"1320 326 OFFCURVE",
"1530 521 OFFCURVE",
"1758 660 CURVE",
"1634 874 LINE",
"1474 781 OFFCURVE",
"1243 526 OFFCURVE",
"1144 350 CURVE",
"1111 478 OFFCURVE",
"1078 590 OFFCURVE",
"1043 685 CURVE",
"1191 853 OFFCURVE",
"1367 998 OFFCURVE",
"1570 1121 CURVE",
"1449 1323 LINE",
"1306 1236 OFFCURVE",
"1149 1077 OFFCURVE",
"979 846 CURVE",
"843 1154 OFFCURVE",
"669 1327 OFFCURVE",
"440 1374 CURVE",
"376 1138 LINE",
"429 1127 OFFCURVE",
"480 1110 OFFCURVE",
"528 1085 CURVE",
"297 722 OFFCURVE",
"180 407 OFFCURVE",
"180 175 CURVE SMOOTH",
"180 55 OFFCURVE",
"195 -33 OFFCURVE",
"224 -90 CURVE"
);
}
);
width = 1898;
}
);
note = uni0800;
unicode = 0800;
},
{
glyphname = uni0801;
lastChange = "2016-11-10 17:39:38 +0000";
layers = (
{
layerId = "4E00A5E8-150E-4B16-AABA-1F51DF776701";
paths = (
{
closed = 1;
nodes = (
"1297 -79 OFFCURVE",
"1449 37 OFFCURVE",
"1449 178 CURVE SMOOTH",
"1449 259 OFFCURVE",
"1147 759 OFFCURVE",
"906 1099 CURVE SMOOTH",
"785 1268 OFFCURVE",
"711 1353 OFFCURVE",
"684 1353 CURVE SMOOTH",
"655 1353 OFFCURVE",
"631 1347 OFFCURVE",
"612 1336 CURVE",
"593 1324 OFFCURVE",
"560 1296 OFFCURVE",
"513 1253 CURVE SMOOTH",
"420 1166 OFFCURVE",
"280 1007 OFFCURVE",
"205 900 CURVE SMOOTH",
"168 847 OFFCURVE",
"149 808 OFFCURVE",
"149 784 CURVE SMOOTH",
"149 761 OFFCURVE",
"161 736 OFFCURVE",
"186 710 CURVE SMOOTH",
"234 658 OFFCURVE",
"265 653 OFFCURVE",
"346 653 CURVE SMOOTH",
"659 653 LINE SMOOTH",
"763 653 OFFCURVE",
"879 647 OFFCURVE",
"1006 636 CURVE",
"1138 392 OFFCURVE",
"1204 243 OFFCURVE",
"1204 190 CURVE SMOOTH",
"1204 109 OFFCURVE",
"1167 79 OFFCURVE",
"1010 79 CURVE SMOOTH",
"918 79 OFFCURVE",
"783 106 OFFCURVE",
"605 159 CURVE SMOOTH",
"426 212 OFFCURVE",
"297 238 OFFCURVE",
"217 238 CURVE SMOOTH",
"192 238 OFFCURVE",
"166 235 OFFCURVE",
"139 230 CURVE",
"100 -5 LINE",
"133 3 OFFCURVE",
"171 7 OFFCURVE",
"215 7 CURVE SMOOTH",
"302 7 OFFCURVE",
"434 -7 OFFCURVE",
"613 -36 CURVE SMOOTH",
"792 -65 OFFCURVE",
"930 -79 OFFCURVE",
"1029 -79 CURVE SMOOTH"
);
},
{
closed = 1;
nodes = (
"637 812 LINE",
"416 812 LINE SMOOTH",
"401 812 OFFCURVE",
"394 817 OFFCURVE",
"394 827 CURVE SMOOTH",
"394 892 OFFCURVE",
"591 1171 OFFCURVE",
"636 1195 CURVE",
"653 1189 OFFCURVE",
"688 1150 OFFCURVE",
"739 1078 CURVE SMOOTH",
"790 1006 OFFCURVE",
"847 915 OFFCURVE",
"910 806 CURVE"
);
}
);
width = 1589;
}
);
note = uni0801;
unicode = 0801;
},
{
glyphname = uni0802;
lastChange = "2016-11-10 17:39:38 +0000";
layers = (
{
layerId = "4E00A5E8-150E-4B16-AABA-1F51DF776701";
paths = (
{
closed = 1;
nodes = (
"1436 -1 OFFCURVE",
"1460 98 OFFCURVE",
"1460 203 CURVE SMOOTH",
"1460 458 OFFCURVE",
"1279 841 OFFCURVE",
"1003 1190 CURVE",
"1232 1190 LINE",
"1315 1191 LINE",
"1290 1327 LINE",
"1228 1327 LINE",
"993 1342 OFFCURVE",
"831 1350 OFFCURVE",
"744 1350 CURVE SMOOTH",
"384 1350 OFFCURVE",
"155 1267 OFFCURVE",
"80 1114 CURVE",
"223 938 LINE",
"324 1102 OFFCURVE",
"453 1170 OFFCURVE",
"808 1186 CURVE",
"1063 851 OFFCURVE",
"1215 506 OFFCURVE",
"1215 266 CURVE SMOOTH",
"1215 173 OFFCURVE",
"1193 84 OFFCURVE",
"1148 0 CURVE",
"1387 -94 LINE"
);
}
);
width = 1620;
}
);
note = uni0802;
unicode = 0802;
},
{
glyphname = uni0803;
lastChange = "2016-11-10 17:39:38 +0000";
layers = (
{
layerId = "4E00A5E8-150E-4B16-AABA-1F51DF776701";
paths = (
{
closed = 1;
nodes = (
"1160 1 OFFCURVE",
"1188 117 OFFCURVE",
"1188 221 CURVE SMOOTH",
"1188 284 OFFCURVE",
"1181 342 OFFCURVE",
"1168 394 CURVE SMOOTH",
"1140 498 OFFCURVE",
"959 927 OFFCURVE",
"832 1151 CURVE",
"859 1156 OFFCURVE",
"888 1158 OFFCURVE",
"919 1158 CURVE SMOOTH",
"976 1158 OFFCURVE",
"1043 1144 OFFCURVE",
"1122 1117 CURVE",
"1182 1305 LINE",
"1112 1328 OFFCURVE",
"1038 1340 OFFCURVE",
"959 1340 CURVE SMOOTH",
"884 1340 OFFCURVE",
"809 1327 OFFCURVE",
"733 1301 CURVE",
"704 1334 OFFCURVE",
"682 1350 OFFCURVE",
"667 1350 CURVE SMOOTH",
"578 1350 OFFCURVE",
"519 1291 OFFCURVE",
"422 1194 CURVE SMOOTH",
"325 1097 OFFCURVE",
"130 856 OFFCURVE",
"130 784 CURVE SMOOTH",
"130 761 OFFCURVE",
"142 736 OFFCURVE",
"167 710 CURVE SMOOTH",
"215 658 OFFCURVE",
"246 653 OFFCURVE",
"327 653 CURVE SMOOTH",
"687 653 LINE",
"874 646 LINE",
"920 519 OFFCURVE",
"943 405 OFFCURVE",
"943 304 CURVE SMOOTH",
"943 200 OFFCURVE",
"911 80 OFFCURVE",
"870 0 CURVE",
"1109 -94 LINE"
);
},
{
closed = 1;
nodes = (
"617 812 LINE",
"396 812 LINE SMOOTH",
"381 812 OFFCURVE",
"374 817 OFFCURVE",
"374 827 CURVE SMOOTH",
"374 892 OFFCURVE",
"571 1171 OFFCURVE",
"616 1195 CURVE",
"637 1192 OFFCURVE",
"667 1157 OFFCURVE",
"704 1088 CURVE SMOOTH",
"741 1019 OFFCURVE",
"781 926 OFFCURVE",
"824 808 CURVE"
);
}
);
width = 1348;
}
);
note = uni0803;
unicode = 0803;
},
{
glyphname = uni0804;
lastChange = "2016-11-10 17:37:31 +0000";
layers = (
{
layerId = "4E00A5E8-150E-4B16-AABA-1F51DF776701";
paths = (
{
closed = 1;
nodes = (
"1574 -3 OFFCURVE",
"1598 96 OFFCURVE",
"1598 203 CURVE SMOOTH",
"1598 463 OFFCURVE",
"1412 859 OFFCURVE",
"1116 1222 CURVE SMOOTH",
"1022 1337 LINE",
"987 1344 OFFCURVE",
"850 1351 OFFCURVE",
"765 1351 CURVE SMOOTH",
"449 1351 OFFCURVE",
"199 1262 OFFCURVE",
"130 1119 CURVE",
"273 943 LINE",
"394 1143 OFFCURVE",
"619 1194 OFFCURVE",
"940 1194 CURVE",
"1003 1110 LINE",
"909 1059 LINE SMOOTH",
"569 876 OFFCURVE",
"431 735 OFFCURVE",
"390 587 CURVE",
"595 505 LINE",
"626 688 OFFCURVE",
"818 882 OFFCURVE",
"1074 1005 CURVE",
"1143 898 OFFCURVE",
"1201 795 OFFCURVE",
"1246 695 CURVE",
"1153 644 LINE SMOOTH",
"828 473 OFFCURVE",
"668 325 OFFCURVE",
"625 168 CURVE",
"831 85 LINE",
"857 242 OFFCURVE",
"1011 406 OFFCURVE",
"1293 577 CURVE",
"1333 470 OFFCURVE",
"1353 366 OFFCURVE",
"1353 266 CURVE SMOOTH",
"1353 171 OFFCURVE",
"1331 83 OFFCURVE",
"1286 0 CURVE",
"1525 -94 LINE"
);
}
);
width = 1758;
}
);
note = uni0804;
unicode = 0804;
},
{
glyphname = uni0805;
lastChange = "2016-11-10 17:39:38 +0000";
layers = (
{
layerId = "4E00A5E8-150E-4B16-AABA-1F51DF776701";
paths = (
{
closed = 1;
nodes = (
"1713 -3 OFFCURVE",
"1737 96 OFFCURVE",
"1737 203 CURVE SMOOTH",
"1737 435 OFFCURVE",
"1543 836 OFFCURVE",
"1218 1277 CURVE SMOOTH",
"1198 1305 LINE SMOOTH",
"1170 1344 OFFCURVE",
"1147 1364 OFFCURVE",
"1128 1364 CURVE SMOOTH",
"1046 1364 OFFCURVE",
"920 1350 OFFCURVE",
"750 1321 CURVE SMOOTH",
"410 1263 OFFCURVE",
"202 1143 OFFCURVE",
"130 958 CURVE",
"299 805 LINE",
"400 1045 OFFCURVE",
"565 1142 OFFCURVE",
"1054 1215 CURVE",
"1116 1134 OFFCURVE",
"1173 1053 OFFCURVE",
"1225 972 CURVE",
"1014 878 OFFCURVE",
"856 791 OFFCURVE",
"751 712 CURVE SMOOTH",
"646 633 OFFCURVE",
"579 557 OFFCURVE",
"552 486 CURVE",
"745 374 LINE",
"788 523 OFFCURVE",
"975 688 OFFCURVE",
"1298 851 CURVE",
"1422 631 OFFCURVE",
"1492 423 OFFCURVE",
"1492 266 CURVE SMOOTH",
"1492 171 OFFCURVE",
"1470 83 OFFCURVE",
"1426 0 CURVE",
"1664 -94 LINE"
);
}
);
width = 1897;
}
);
note = uni0805;
unicode = 0805;
},
{
glyphname = uni0806;
lastChange = "2016-11-10 17:39:38 +0000";
layers = (
{
layerId = "4E00A5E8-150E-4B16-AABA-1F51DF776701";
paths = (
{
closed = 1;
nodes = (
"780 -36 OFFCURVE",
"937 19 OFFCURVE",
"1147 56 CURVE SMOOTH",
"1357 93 OFFCURVE",
"1492 132 OFFCURVE",
"1551 174 CURVE SMOOTH",
"1610 215 OFFCURVE",
"1639 271 OFFCURVE",
"1639 340 CURVE SMOOTH",
"1639 495 OFFCURVE",
"1530 944 OFFCURVE",
"1423 1182 CURVE SMOOTH",
"1369 1301 OFFCURVE",
"1319 1360 OFFCURVE",
"1273 1360 CURVE SMOOTH",
"1077 1360 OFFCURVE",
"765 1247 OFFCURVE",
"541 1099 CURVE",
"474 1372 OFFCURVE",
"378 1481 OFFCURVE",
"214 1501 CURVE",
"130 1275 LINE",
"204 1270 OFFCURVE",
"265 1236 OFFCURVE",
"313 1171 CURVE SMOOTH",
"361 1106 OFFCURVE",
"405 988 OFFCURVE",
"446 818 CURVE SMOOTH",
"487 648 OFFCURVE",
"515 532 OFFCURVE",
"531 471 CURVE SMOOTH",
"546 410 OFFCURVE",
"588 379 OFFCURVE",
"657 379 CURVE SMOOTH",
"826 379 OFFCURVE",
"1067 490 OFFCURVE",
"1335 682 CURVE",
"1374 521 OFFCURVE",
"1394 417 OFFCURVE",
"1394 370 CURVE SMOOTH",
"1394 277 OFFCURVE",
"1343 229 OFFCURVE",
"1239 203 CURVE SMOOTH",
"1187 190 OFFCURVE",
"1091 183 OFFCURVE",
"952 183 CURVE SMOOTH",
"747 183 OFFCURVE",
"641 153 OFFCURVE",
"566 98 CURVE",
"676 -109 LINE"
);
},
{
closed = 1;
nodes = (
"651 583 OFFCURVE",
"636 646 OFFCURVE",
"623 708 CURVE SMOOTH",
"586 890 LINE",
"793 1077 OFFCURVE",
"1012 1187 OFFCURVE",
"1156 1187 CURVE SMOOTH",
"1180 1187 OFFCURVE",
"1220 1092 OFFCURVE",
"1276 902 CURVE",
"1067 663 OFFCURVE",
"842 524 OFFCURVE",
"669 520 CURVE"
);
}
);
width = 1799;
}
);
note = uni0806;
unicode = 0806;
},
{
glyphname = uni0807;
lastChange = "2016-11-10 17:39:38 +0000";
layers = (
{
layerId = "4E00A5E8-150E-4B16-AABA-1F51DF776701";
paths = (
{
closed = 1;
nodes = (
"1752 -4 OFFCURVE",
"1776 95 OFFCURVE",
"1776 202 CURVE SMOOTH",
"1776 470 OFFCURVE",
"1583 880 OFFCURVE",
"1294 1221 CURVE SMOOTH",
"1200 1332 LINE",
"1171 1337 OFFCURVE",
"1017 1350 OFFCURVE",
"934 1350 CURVE SMOOTH",
"707 1350 OFFCURVE",
"513 1305 OFFCURVE",
"397 1225 CURVE",
"299 1318 OFFCURVE",
"198 1372 OFFCURVE",
"94 1386 CURVE",
"30 1150 LINE",
"359 1085 OFFCURVE",
"569 781 OFFCURVE",
"709 164 CURVE",
"945 105 LINE",
"956 172 OFFCURVE",
"999 243 OFFCURVE",
"1074 319 CURVE SMOOTH",
"1148 394 OFFCURVE",
"1276 488 OFFCURVE",
"1457 599 CURVE",
"1506 478 OFFCURVE",
"1531 367 OFFCURVE",
"1531 265 CURVE SMOOTH",
"1531 170 OFFCURVE",
"1509 82 OFFCURVE",
"1465 0 CURVE",
"1703 -94 LINE"
);
},
{
closed = 1;
nodes = (
"798 359 OFFCURVE",
"787 428 OFFCURVE",
"771 497 CURVE",
"834 638 OFFCURVE",
"1030 823 OFFCURVE",
"1262 964 CURVE",
"1318 878 OFFCURVE",
"1365 796 OFFCURVE",
"1402 719 CURVE",
"1318 673 LINE SMOOTH",
"1025 512 OFFCURVE",
"885 402 OFFCURVE",
"805 291 CURVE"
);
},
{
closed = 1;
nodes = (
"648 869 OFFCURVE",
"597 967 OFFCURVE",
"538 1054 CURVE",
"649 1145 OFFCURVE",
"826 1189 OFFCURVE",
"1099 1193 CURVE",
"1188 1072 LINE",
"1082 1016 LINE SMOOTH",
"912 928 OFFCURVE",
"782 842 OFFCURVE",
"691 758 CURVE"
);
}
);
width = 1936;
}
);
note = uni0807;
unicode = 0807;
},
{
glyphname = uni0808;
lastChange = "2016-11-10 17:39:38 +0000";
layers = (
{
layerId = "4E00A5E8-150E-4B16-AABA-1F51DF776701";
paths = (
{
closed = 1;
nodes = (
"1070 -80 OFFCURVE",
"1223 53 OFFCURVE",
"1326 169 CURVE SMOOTH",
"1429 285 OFFCURVE",
"1531 443 OFFCURVE",
"1603 593 CURVE SMOOTH",
"1675 743 OFFCURVE",
"1760 930 OFFCURVE",
"1771 1163 CURVE",
"1755 1258 OFFCURVE",
"1654 1350 OFFCURVE",
"1539 1350 CURVE SMOOTH",
"1482 1350 OFFCURVE",
"1411 1328 OFFCURVE",
"1325 1285 CURVE SMOOTH",
"1153 1198 OFFCURVE",
"970 1044 OFFCURVE",
"970 979 CURVE SMOOTH",
"970 883 OFFCURVE",
"994 819 OFFCURVE",
"1071 738 CURVE",
"1247 914 LINE",
"1226 939 OFFCURVE",
"1210 962 OFFCURVE",
"1210 1001 CURVE SMOOTH",
"1210 1077 OFFCURVE",
"1346 1166 OFFCURVE",
"1473 1166 CURVE SMOOTH",
"1508 1166 OFFCURVE",
"1526 1153 OFFCURVE",
"1526 1128 CURVE SMOOTH",
"1526 987 OFFCURVE",
"1495 835 OFFCURVE",
"1434 673 CURVE SMOOTH",
"1311 349 OFFCURVE",
"1111 120 OFFCURVE",
"922 120 CURVE SMOOTH",
"858 120 OFFCURVE",
"790 172 OFFCURVE",
"717 276 CURVE SMOOTH",
"571 484 OFFCURVE",
"440 854 OFFCURVE",
"440 1049 CURVE SMOOTH",
"440 1075 OFFCURVE",
"482 1097 OFFCURVE",
"567 1116 CURVE SMOOTH",
"736 1152 OFFCURVE",
"856 1188 OFFCURVE",
"951 1239 CURVE",
"889 1365 LINE",
"815 1320 OFFCURVE",
"682 1283 OFFCURVE",
"491 1252 CURVE SMOOTH",
"300 1221 OFFCURVE",
"196 1195 OFFCURVE",
"180 1173 CURVE",
"180 1034 OFFCURVE",
"216 854 OFFCURVE",
"289 633 CURVE SMOOTH",
"434 189 OFFCURVE",
"653 -80 OFFCURVE",
"897 -80 CURVE SMOOTH"
);
}
);
width = 1951;
}
);
note = uni0808;
unicode = 0808;
},
{
glyphname = uni0809;
lastChange = "2016-11-10 17:39:38 +0000";
layers = (
{
layerId = "4E00A5E8-150E-4B16-AABA-1F51DF776701";
paths = (
{
closed = 1;
nodes = (
"1410 9 OFFCURVE",
"1454 132 OFFCURVE",
"1537 303 CURVE SMOOTH",
"1608 448 LINE SMOOTH",
"1755 749 OFFCURVE",
"1798 901 OFFCURVE",
"1798 1030 CURVE",
"1797 1040 LINE",
"1829 1099 OFFCURVE",
"1877 1138 OFFCURVE",
"1938 1171 CURVE SMOOTH",
"1968 1187 OFFCURVE",
"2035 1213 OFFCURVE",
"2140 1249 CURVE",
"2090 1471 LINE",
"1937 1426 OFFCURVE",
"1819 1353 OFFCURVE",
"1736 1253 CURVE",
"1677 1337 OFFCURVE",
"1589 1379 OFFCURVE",
"1472 1379 CURVE SMOOTH",
"1342 1379 OFFCURVE",
"1212 1311 OFFCURVE",
"1082 1175 CURVE",
"1032 1268 OFFCURVE",
"946 1315 OFFCURVE",
"823 1315 CURVE SMOOTH",
"508 1315 OFFCURVE",
"208 901 OFFCURVE",
"100 426 CURVE",
"368 480 LINE",
"423 701 OFFCURVE",
"489 869 OFFCURVE",
"564 986 CURVE SMOOTH",
"639 1103 OFFCURVE",
"720 1161 OFFCURVE",
"805 1161 CURVE SMOOTH",
"895 1161 OFFCURVE",
"945 1113 OFFCURVE",
"956 1017 CURVE",
"775 754 OFFCURVE",
"617 335 OFFCURVE",
"610 208 CURVE",
"872 237 LINE",
"875 308 OFFCURVE",
"911 436 OFFCURVE",
"981 622 CURVE SMOOTH",
"1120 994 OFFCURVE",
"1294 1225 OFFCURVE",
"1453 1225 CURVE SMOOTH",
"1565 1225 OFFCURVE",
"1634 1149 OFFCURVE",
"1634 1032 CURVE SMOOTH",
"1634 909 OFFCURVE",
"1572 761 OFFCURVE",
"1399 485 CURVE SMOOTH",
"1312 347 OFFCURVE",
"1252 243 OFFCURVE",
"1217 173 CURVE SMOOTH",
"1182 103 OFFCURVE",
"1161 45 OFFCURVE",
"1154 0 CURVE",
"1405 -66 LINE"
);
}
);
width = 2240;
}
);
note = uni0809;
unicode = 0809;
},
{
glyphname = uni080A;
lastChange = "2016-11-10 17:39:38 +0000";
layers = (
{
layerId = "4E00A5E8-150E-4B16-AABA-1F51DF776701";
paths = (
{
closed = 1;
nodes = (
"1111 -86 OFFCURVE",
"1260 23 OFFCURVE",
"1260 174 CURVE",
"1259 321 LINE",
"1259 802 OFFCURVE",
"1282 1125 OFFCURVE",
"1327 1288 CURVE",
"1085 1341 LINE",
"1028 1116 OFFCURVE",
"910 1020 OFFCURVE",
"717 1020 CURVE SMOOTH",
"529 1020 OFFCURVE",
"442 1071 OFFCURVE",
"442 1204 CURVE SMOOTH",
"442 1231 OFFCURVE",
"445 1258 OFFCURVE",
"451 1285 CURVE",
"218 1348 LINE",
"207 1308 OFFCURVE",
"202 1268 OFFCURVE",
"202 1227 CURVE SMOOTH",
"202 991 OFFCURVE",
"377 861 OFFCURVE",
"681 861 CURVE SMOOTH",
"830 861 OFFCURVE",
"954 898 OFFCURVE",
"1052 973 CURVE",
"1051 926 LINE",
"1051 879 LINE SMOOTH",
"1051 774 OFFCURVE",
"1059 652 OFFCURVE",
"1074 513 CURVE SMOOTH",
"1089 373 OFFCURVE",
"1097 280 OFFCURVE",
"1097 233 CURVE SMOOTH",
"1097 130 OFFCURVE",
"1022 72 OFFCURVE",
"898 72 CURVE SMOOTH",
"787 72 OFFCURVE",
"679 99 OFFCURVE",
"574 152 CURVE SMOOTH",
"469 205 OFFCURVE",
"386 231 OFFCURVE",
"325 231 CURVE SMOOTH",
"281 231 OFFCURVE",
"246 228 OFFCURVE",
"219 223 CURVE",
"180 -12 LINE",
"212 -4 OFFCURVE",
"257 0 OFFCURVE",
"315 0 CURVE SMOOTH",
"364 0 OFFCURVE",
"436 -14 OFFCURVE",
"531 -43 CURVE SMOOTH",
"626 -72 OFFCURVE",
"749 -86 OFFCURVE",
"898 -86 CURVE SMOOTH"
);
}
);
width = 1507;
}
);
note = uni080A;
unicode = 080A;
},
{
glyphname = uni080B;
lastChange = "2016-11-10 17:39:38 +0000";
layers = (
{
layerId = "4E00A5E8-150E-4B16-AABA-1F51DF776701";
paths = (
{
closed = 1;
nodes = (
"364 -57 OFFCURVE",
"476 -47 OFFCURVE",
"615 -28 CURVE SMOOTH",
"754 -9 OFFCURVE",
"862 0 OFFCURVE",
"939 0 CURVE SMOOTH",
"1003 0 OFFCURVE",
"1051 -4 OFFCURVE",
"1083 -12 CURVE",
"1044 223 LINE",
"1017 228 OFFCURVE",
"982 231 OFFCURVE",
"937 231 CURVE SMOOTH",
"850 231 OFFCURVE",
"745 209 OFFCURVE",
"623 166 CURVE SMOOTH",
"501 123 OFFCURVE",
"396 101 OFFCURVE",
"307 101 CURVE SMOOTH",
"271 101 OFFCURVE",
"238 108 OFFCURVE",
"209 123 CURVE",
"346 330 LINE SMOOTH",
"683 831 OFFCURVE",
"796 1104 OFFCURVE",
"796 1359 CURVE SMOOTH",
"796 1539 OFFCURVE",
"692 1710 OFFCURVE",
"515 1805 CURVE",
"413 1573 LINE",
"536 1532 OFFCURVE",
"609 1425 OFFCURVE",
"609 1288 CURVE SMOOTH",
"609 1008 OFFCURVE",
"367 530 OFFCURVE",
"86 171 CURVE",
"40 -10 LINE",
"104 -41 OFFCURVE",
"184 -57 OFFCURVE",
"279 -57 CURVE SMOOTH"
);
}
);
width = 1243;
}
);
note = uni080B;
unicode = 080B;
},
{
glyphname = uni080C;
lastChange = "2016-11-10 17:39:38 +0000";
layers = (
{
layerId = "4E00A5E8-150E-4B16-AABA-1F51DF776701";
paths = (
{
closed = 1;
nodes = (
"1471 -89 OFFCURVE",
"1620 20 OFFCURVE",
"1620 171 CURVE",
"1619 318 LINE",
"1619 809 OFFCURVE",
"1642 1135 OFFCURVE",
"1687 1295 CURVE",
"1445 1348 LINE",
"1435 1287 OFFCURVE",
"1429 1247 OFFCURVE",
"1427 1226 CURVE SMOOTH",
"1425 1205 OFFCURVE",
"1411 1155 OFFCURVE",
"1386 1078 CURVE SMOOTH",
"1335 922 OFFCURVE",
"1263 854 OFFCURVE",
"1174 854 CURVE SMOOTH",
"1065 854 OFFCURVE",
"1009 922 OFFCURVE",
"1009 1081 CURVE SMOOTH",
"1009 1140 OFFCURVE",
"1020 1211 OFFCURVE",
"1041 1292 CURVE",
"826 1355 LINE",
"811 1301 OFFCURVE",
"803 1258 OFFCURVE",
"800 1225 CURVE SMOOTH",
"797 1192 OFFCURVE",
"781 1138 OFFCURVE",
"753 1063 CURVE SMOOTH",
"697 914 OFFCURVE",
"627 854 OFFCURVE",
"546 854 CURVE SMOOTH",
"437 854 OFFCURVE",
"380 922 OFFCURVE",
"380 1081 CURVE SMOOTH",
"380 1140 OFFCURVE",
"391 1211 OFFCURVE",
"412 1292 CURVE",
"197 1355 LINE",
"172 1269 OFFCURVE",
"160 1179 OFFCURVE",
"160 1085 CURVE SMOOTH",
"160 837 OFFCURVE",
"292 696 OFFCURVE",
"531 696 CURVE SMOOTH",
"657 696 OFFCURVE",
"759 753 OFFCURVE",
"836 866 CURVE",
"895 753 OFFCURVE",
"1003 696 OFFCURVE",
"1160 696 CURVE SMOOTH",
"1261 696 OFFCURVE",
"1345 731 OFFCURVE",
"1413 802 CURVE",
"1416 723 OFFCURVE",
"1424 618 OFFCURVE",
"1437 488 CURVE SMOOTH",
"1450 357 OFFCURVE",
"1457 271 OFFCURVE",
"1457 230 CURVE SMOOTH",
"1457 127 OFFCURVE",
"1382 69 OFFCURVE",
"1258 69 CURVE SMOOTH",
"1002 69 OFFCURVE",
"813 100 OFFCURVE",
"614 184 CURVE SMOOTH",
"515 226 OFFCURVE",
"423 247 OFFCURVE",
"339 247 CURVE SMOOTH",
"276 247 OFFCURVE",
"232 244 OFFCURVE",
"205 239 CURVE",
"165 4 LINE",
"197 12 OFFCURVE",
"252 16 OFFCURVE",
"330 16 CURVE SMOOTH",
"437 16 OFFCURVE",
"570 -1 OFFCURVE",
"731 -36 CURVE SMOOTH",
"892 -71 OFFCURVE",
"1067 -89 OFFCURVE",
"1258 -89 CURVE SMOOTH"
);
}
);
width = 1867;
}
);
note = uni080C;
unicode = 080C;
},
{
glyphname = uni080D;
lastChange = "2016-11-10 17:39:38 +0000";
layers = (
{
layerId = "4E00A5E8-150E-4B16-AABA-1F51DF776701";
paths = (
{
closed = 1;
nodes = (
"935 -69 OFFCURVE",
"1027 -47 OFFCURVE",
"1099 -3 CURVE SMOOTH",
"1242 85 OFFCURVE",
"1309 243 OFFCURVE",
"1309 643 CURVE SMOOTH",
"1309 836 OFFCURVE",
"1292 981 OFFCURVE",
"1259 1077 CURVE SMOOTH",
"1191 1269 OFFCURVE",
"1044 1350 OFFCURVE",
"767 1350 CURVE SMOOTH",
"622 1350 OFFCURVE",
"490 1326 OFFCURVE",
"370 1278 CURVE",
"366 1386 LINE",
"366 1551 OFFCURVE",
"390 1729 OFFCURVE",
"439 1919 CURVE",
"192 1970 LINE",
"171 1866 OFFCURVE",
"160 1755 OFFCURVE",
"160 1637 CURVE SMOOTH",
"160 1485 OFFCURVE",
"195 1243 OFFCURVE",
"239 1115 CURVE",
"340 1086 LINE",
"422 1156 OFFCURVE",
"548 1191 OFFCURVE",
"718 1191 CURVE SMOOTH",
"889 1191 OFFCURVE",
"991 1128 OFFCURVE",
"1036 997 CURVE SMOOTH",
"1058 931 OFFCURVE",
"1069 823 OFFCURVE",
"1069 674 CURVE SMOOTH",
"1069 462 OFFCURVE",
"1047 312 OFFCURVE",
"1004 223 CURVE SMOOTH",
"960 134 OFFCURVE",
"894 89 OFFCURVE",
"805 89 CURVE SMOOTH",
"717 89 OFFCURVE",
"631 111 OFFCURVE",
"546 154 CURVE SMOOTH",
"461 197 OFFCURVE",
"376 219 OFFCURVE",
"291 219 CURVE SMOOTH",
"266 219 OFFCURVE",
"240 216 OFFCURVE",
"213 211 CURVE",
"173 -24 LINE",
"202 -16 OFFCURVE",
"240 -12 OFFCURVE",
"289 -12 CURVE SMOOTH",
"373 -12 OFFCURVE",
"460 -21 OFFCURVE",
"549 -40 CURVE SMOOTH",
"638 -59 OFFCURVE",
"730 -69 OFFCURVE",
"824 -69 CURVE SMOOTH"
);
}
);
width = 1489;
}
);
note = uni080D;
unicode = 080D;
},
{
glyphname = uni080E;
lastChange = "2016-11-10 17:39:38 +0000";
layers = (
{
layerId = "4E00A5E8-150E-4B16-AABA-1F51DF776701";
paths = (
{
closed = 1;
nodes = (
"693 -33 LINE",
"693 17 OFFCURVE",
"688 71 OFFCURVE",
"677 128 CURVE",
"952 216 OFFCURVE",
"1459 493 OFFCURVE",
"1459 622 CURVE SMOOTH",
"1459 679 OFFCURVE",
"1413 756 OFFCURVE",
"1320 853 CURVE SMOOTH",
"1135 1046 OFFCURVE",
"786 1279 OFFCURVE",
"555 1363 CURVE",
"591 1460 OFFCURVE",
"609 1546 OFFCURVE",
"609 1621 CURVE SMOOTH",
"609 1796 OFFCURVE",
"505 1955 OFFCURVE",
"329 2050 CURVE",
"217 1842 LINE",
"334 1803 OFFCURVE",
"422 1675 OFFCURVE",
"422 1554 CURVE SMOOTH",
"422 1493 OFFCURVE",
"412 1404 OFFCURVE",
"391 1288 CURVE",
"447 1267 OFFCURVE",
"511 1236 OFFCURVE",
"583 1197 CURVE",
"516 1094 OFFCURVE",
"406 991 OFFCURVE",
"266 900 CURVE SMOOTH",
"195 854 OFFCURVE",
"160 817 OFFCURVE",
"160 790 CURVE SMOOTH",
"160 783 OFFCURVE",
"162 774 OFFCURVE",
"165 763 CURVE SMOOTH",
"168 751 OFFCURVE",
"196 700 OFFCURVE",
"250 609 CURVE SMOOTH",
"358 428 OFFCURVE",
"421 229 OFFCURVE",
"448 -78 CURVE"
);
},
{
closed = 1;
nodes = (
"576 469 OFFCURVE",
"466 655 OFFCURVE",
"331 779 CURVE",
"541 893 OFFCURVE",
"684 996 OFFCURVE",
"759 1087 CURVE",
"964 946 OFFCURVE",
"1126 779 OFFCURVE",
"1209 627 CURVE",
"1108 495 OFFCURVE",
"919 373 OFFCURVE",
"643 261 CURVE"
);
}
);
width = 1579;
}
);
note = uni080E;
unicode = 080E;
},
{
glyphname = uni080F;
lastChange = "2016-11-10 17:39:38 +0000";
layers = (
{
layerId = "4E00A5E8-150E-4B16-AABA-1F51DF776701";
paths = (
{
closed = 1;
nodes = (
"1040 154 OFFCURVE",
"1151 203 OFFCURVE",
"1262 301 CURVE SMOOTH",
"1483 497 OFFCURVE",
"1659 888 OFFCURVE",
"1659 1165 CURVE",
"1656 1211 LINE",
"1523 1306 OFFCURVE",
"1269 1360 OFFCURVE",
"934 1360 CURVE SMOOTH",
"573 1360 OFFCURVE",
"245 1295 OFFCURVE",
"180 1210 CURVE",
"180 1081 OFFCURVE",
"219 924 OFFCURVE",
"296 740 CURVE SMOOTH",
"450 372 OFFCURVE",
"677 154 OFFCURVE",
"928 154 CURVE SMOOTH"
);
},
{
closed = 1;
nodes = (
"888 354 OFFCURVE",
"815 395 OFFCURVE",
"735 476 CURVE SMOOTH",
"574 639 OFFCURVE",
"440 914 OFFCURVE",
"440 1077 CURVE SMOOTH",
"440 1113 OFFCURVE",
"489 1143 OFFCURVE",
"586 1166 CURVE SMOOTH",
"683 1189 OFFCURVE",
"799 1201 OFFCURVE",
"934 1201 CURVE SMOOTH",
"1080 1201 OFFCURVE",
"1208 1189 OFFCURVE",
"1317 1165 CURVE SMOOTH",
"1426 1141 OFFCURVE",
"1481 1112 OFFCURVE",
"1481 1077 CURVE SMOOTH",
"1481 986 OFFCURVE",
"1453 883 OFFCURVE",
"1396 769 CURVE SMOOTH",
"1283 540 OFFCURVE",
"1093 354 OFFCURVE",
"953 354 CURVE SMOOTH"
);
}
);
width = 1839;
}
);
note = uni080F;
unicode = 080F;
},
{
glyphname = uni0810;
lastChange = "2016-11-10 17:39:38 +0000";
layers = (
{
layerId = "4E00A5E8-150E-4B16-AABA-1F51DF776701";
paths = (
{
closed = 1;
nodes = (
"995 -59 OFFCURVE",
"1087 -38 OFFCURVE",
"1158 5 CURVE SMOOTH",
"1298 90 OFFCURVE",
"1364 233 OFFCURVE",
"1364 630 CURVE SMOOTH",
"1364 829 OFFCURVE",
"1347 977 OFFCURVE",
"1313 1076 CURVE SMOOTH",
"1244 1273 OFFCURVE",
"1097 1360 OFFCURVE",
"822 1360 CURVE SMOOTH",
"490 1360 OFFCURVE",
"349 1303 OFFCURVE",
"160 1184 CURVE",
"289 996 LINE",
"417 1105 OFFCURVE",
"632 1201 OFFCURVE",
"773 1201 CURVE SMOOTH",
"942 1201 OFFCURVE",
"1044 1135 OFFCURVE",
"1090 996 CURVE SMOOTH",
"1113 926 OFFCURVE",
"1124 814 OFFCURVE",
"1124 661 CURVE SMOOTH",
"1124 454 OFFCURVE",
"1102 308 OFFCURVE",
"1059 225 CURVE SMOOTH",
"1016 141 OFFCURVE",
"949 99 OFFCURVE",
"860 99 CURVE SMOOTH",
"774 99 OFFCURVE",
"676 121 OFFCURVE",
"567 164 CURVE SMOOTH",
"458 207 OFFCURVE",
"362 229 OFFCURVE",
"279 229 CURVE SMOOTH",
"254 229 OFFCURVE",
"228 226 OFFCURVE",
"201 221 CURVE",
"162 -14 LINE",
"189 -6 OFFCURVE",
"228 -2 OFFCURVE",
"277 -2 CURVE SMOOTH",
"360 -2 OFFCURVE",
"457 -11 OFFCURVE",
"568 -30 CURVE SMOOTH",
"679 -49 OFFCURVE",
"783 -59 OFFCURVE",
"880 -59 CURVE SMOOTH"
);
}
);
width = 1544;
}
);
note = uni0810;
unicode = 0810;
},
{
glyphname = uni0811;
lastChange = "2016-11-10 17:39:38 +0000";
layers = (
{
layerId = "4E00A5E8-150E-4B16-AABA-1F51DF776701";
paths = (
{
closed = 1;
nodes = (
"1627 0 OFFCURVE",
"1671 120 OFFCURVE",
"1754 284 CURVE SMOOTH",
"1825 429 LINE SMOOTH",
"1972 730 OFFCURVE",
"2015 882 OFFCURVE",
"2015 1011 CURVE SMOOTH",
"2015 1224 OFFCURVE",
"1892 1360 OFFCURVE",
"1689 1360 CURVE SMOOTH",
"1556 1360 OFFCURVE",
"1424 1290 OFFCURVE",
"1294 1151 CURVE",
"1244 1239 OFFCURVE",
"1159 1283 OFFCURVE",
"1040 1283 CURVE SMOOTH",
"804 1283 OFFCURVE",
"571 1069 OFFCURVE",
"418 714 CURVE",
"321 750 OFFCURVE",
"235 768 OFFCURVE",
"162 768 CURVE SMOOTH",
"119 768 OFFCURVE",
"79 763 OFFCURVE",
"40 752 CURVE",
"78 537 LINE",
"120 554 OFFCURVE",
"171 562 OFFCURVE",
"232 562 CURVE SMOOTH",
"335 562 OFFCURVE",
"441 526 OFFCURVE",
"585 461 CURVE",
"638 672 OFFCURVE",
"703 837 OFFCURVE",
"778 954 CURVE SMOOTH",
"853 1071 OFFCURVE",
"935 1129 OFFCURVE",
"1022 1129 CURVE SMOOTH",
"1108 1129 OFFCURVE",
"1158 1085 OFFCURVE",
"1171 996 CURVE",
"994 741 OFFCURVE",
"834 314 OFFCURVE",
"827 189 CURVE",
"1089 218 LINE",
"1092 289 OFFCURVE",
"1128 417 OFFCURVE",
"1198 603 CURVE SMOOTH",
"1337 975 OFFCURVE",
"1511 1206 OFFCURVE",
"1670 1206 CURVE SMOOTH",
"1782 1206 OFFCURVE",
"1851 1130 OFFCURVE",
"1851 1013 CURVE SMOOTH",
"1851 830 OFFCURVE",
"1666 536 OFFCURVE",
"1506 289 CURVE SMOOTH",
"1425 165 OFFCURVE",
"1380 69 OFFCURVE",
"1370 0 CURVE",
"1622 -75 LINE"
);
}
);
width = 2195;
}
);
note = uni0811;
unicode = 0811;
},
{
glyphname = uni0812;
lastChange = "2016-11-10 17:39:38 +0000";
layers = (
{
layerId = "4E00A5E8-150E-4B16-AABA-1F51DF776701";
paths = (
{
closed = 1;
nodes = (
"849 -25 OFFCURVE",
"864 44 OFFCURVE",
"864 124 CURVE SMOOTH",
"864 209 OFFCURVE",
"845 304 OFFCURVE",
"807 408 CURVE",
"1029 600 LINE SMOOTH",
"1217 764 OFFCURVE",
"1311 872 OFFCURVE",
"1311 924 CURVE SMOOTH",
"1311 1165 OFFCURVE",
"1073 1388 OFFCURVE",
"749 1388 CURVE SMOOTH",
"544 1388 OFFCURVE",
"341 1314 OFFCURVE",
"140 1165 CURVE",
"453 789 OFFCURVE",
"619 450 OFFCURVE",
"619 178 CURVE SMOOTH",
"619 111 OFFCURVE",
"608 52 OFFCURVE",
"585 0 CURVE",
"818 -82 LINE"
);
},
{
closed = 1;
nodes = (
"665 714 OFFCURVE",
"534 918 OFFCURVE",
"371 1099 CURVE",
"478 1194 OFFCURVE",
"607 1240 OFFCURVE",
"728 1240 CURVE SMOOTH",
"929 1240 OFFCURVE",
"1071 1105 OFFCURVE",
"1071 909 CURVE SMOOTH",
"1071 860 OFFCURVE",
"1024 794 OFFCURVE",
"930 711 CURVE SMOOTH",
"745 549 LINE"
);
}
);
width = 1491;
}
);
note = uni0812;
unicode = 0812;
},
{
glyphname = uni0813;
lastChange = "2016-11-10 17:39:38 +0000";
layers = (
{
layerId = "4E00A5E8-150E-4B16-AABA-1F51DF776701";
paths = (
{
closed = 1;
nodes = (
"1290 -53 OFFCURVE",
"1300 -2 OFFCURVE",
"1300 61 CURVE SMOOTH",
"1300 290 OFFCURVE",
"1134 706 OFFCURVE",
"936 1058 CURVE SMOOTH",
"837 1234 OFFCURVE",
"778 1331 OFFCURVE",
"760 1349 CURVE SMOOTH",
"742 1366 OFFCURVE",
"726 1375 OFFCURVE",
"711 1375 CURVE SMOOTH",
"685 1375 OFFCURVE",
"662 1368 OFFCURVE",
"643 1354 CURVE SMOOTH",
"604 1326 OFFCURVE",
"547 1274 OFFCURVE",
"461 1182 CURVE SMOOTH",
"375 1089 OFFCURVE",
"247 925 OFFCURVE",
"180 824 CURVE SMOOTH",
"147 773 OFFCURVE",
"130 738 OFFCURVE",
"130 717 CURVE SMOOTH",
"130 694 OFFCURVE",
"142 669 OFFCURVE",
"167 643 CURVE SMOOTH",
"215 591 OFFCURVE",
"246 586 OFFCURVE",
"327 586 CURVE SMOOTH",
"620 586 LINE SMOOTH",
"718 586 OFFCURVE",
"841 580 OFFCURVE",
"990 567 CURVE",
"1033 420 OFFCURVE",
"1055 283 OFFCURVE",
"1055 156 CURVE SMOOTH",
"1055 98 OFFCURVE",
"1047 46 OFFCURVE",
"1031 0 CURVE",
"1269 -93 LINE"
);
},
{
closed = 1;
nodes = (
"741 743 LINE",
"598 745 LINE",
"397 745 LINE SMOOTH",
"381 745 OFFCURVE",
"375 747 OFFCURVE",
"375 760 CURVE SMOOTH",
"375 823 OFFCURVE",
"630 1184 OFFCURVE",
"674 1207 CURVE",
"743 1128 OFFCURVE",
"859 916 OFFCURVE",
"930 737 CURVE"
);
}
);
width = 1460;
}
);
note = uni0813;
unicode = 0813;
},
{
glyphname = uni0814;
lastChange = "2016-11-10 17:39:38 +0000";
layers = (
{
layerId = "4E00A5E8-150E-4B16-AABA-1F51DF776701";
paths = (
{
closed = 1;
nodes = (
"638 756 OFFCURVE",
"740 813 OFFCURVE",
"817 926 CURVE",
"874 817 OFFCURVE",
"994 756 OFFCURVE",
"1151 756 CURVE SMOOTH",
"1438 756 OFFCURVE",
"1586 959 OFFCURVE",
"1593 1364 CURVE",
"1429 1415 LINE",
"1422 1091 OFFCURVE",
"1332 914 OFFCURVE",
"1175 914 CURVE SMOOTH",
"1066 914 OFFCURVE",
"1010 982 OFFCURVE",
"1010 1141 CURVE SMOOTH",
"1010 1203 OFFCURVE",
"1020 1273 OFFCURVE",
"1041 1352 CURVE",
"806 1415 LINE",
"793 1364 OFFCURVE",
"784 1322 OFFCURVE",
"781 1287 CURVE SMOOTH",
"778 1252 OFFCURVE",
"762 1197 OFFCURVE",
"734 1122 CURVE SMOOTH",
"677 972 OFFCURVE",
"607 914 OFFCURVE",
"526 914 CURVE SMOOTH",
"417 914 OFFCURVE",
"361 982 OFFCURVE",
"361 1141 CURVE SMOOTH",
"361 1200 OFFCURVE",
"372 1271 OFFCURVE",
"393 1352 CURVE",
"168 1415 LINE",
"143 1326 OFFCURVE",
"130 1236 OFFCURVE",
"130 1145 CURVE SMOOTH",
"130 901 OFFCURVE",
"271 756 OFFCURVE",
"512 756 CURVE SMOOTH"
);
}
);
width = 1723;
}
);
note = uni0814;
unicode = 0814;
},
{
glyphname = uni0815;
lastChange = "2016-11-10 17:39:38 +0000";
layers = (
{
layerId = "4E00A5E8-150E-4B16-AABA-1F51DF776701";
paths = (
{
closed = 1;
nodes = (
"462 0 LINE",
"437 54 OFFCURVE",
"425 134 OFFCURVE",
"425 239 CURVE SMOOTH",
"425 479 OFFCURVE",
"509 784 OFFCURVE",
"640 1009 CURVE",
"824 852 OFFCURVE",
"949 564 OFFCURVE",
"1046 141 CURVE",
"1159 119 LINE",
"1320 326 OFFCURVE",
"1530 521 OFFCURVE",
"1758 660 CURVE",
"1634 874 LINE",
"1485 786 OFFCURVE",
"1264 545 OFFCURVE",
"1156 382 CURVE",
"1000 999 OFFCURVE",
"769 1309 OFFCURVE",
"440 1374 CURVE",
"376 1138 LINE",
"426 1128 OFFCURVE",
"472 1113 OFFCURVE",
"514 1092 CURVE",
"307 769 OFFCURVE",
"180 426 OFFCURVE",
"180 175 CURVE SMOOTH",
"180 55 OFFCURVE",
"195 -33 OFFCURVE",
"224 -90 CURVE"
);
}
);
width = 1918;
}
);
note = uni0815;
unicode = 0815;
},
{
glyphname = uni081A;
lastChange = "2016-11-10 17:39:38 +0000";
layers = (
{
layerId = "4E00A5E8-150E-4B16-AABA-1F51DF776701";
paths = (
{
closed = 1;
nodes = (
"187 1592 OFFCURVE",
"211 1625 OFFCURVE",
"270 1625 CURVE SMOOTH",
"314 1625 OFFCURVE",
"366 1608 OFFCURVE",
"427 1573 CURVE SMOOTH",
"487 1538 OFFCURVE",
"536 1520 OFFCURVE",
"573 1520 CURVE SMOOTH",
"678 1520 OFFCURVE",
"764 1581 OFFCURVE",
"796 1702 CURVE",
"653 1762 LINE",
"634 1690 OFFCURVE",
"609 1656 OFFCURVE",
"553 1656 CURVE SMOOTH",
"512 1656 OFFCURVE",
"460 1673 OFFCURVE",
"398 1708 CURVE SMOOTH",
"336 1743 OFFCURVE",
"285 1760 OFFCURVE",
"246 1760 CURVE SMOOTH",
"130 1760 OFFCURVE",
"57 1695 OFFCURVE",
"30 1580 CURVE",
"170 1520 LINE"
);
}
);
width = 830;
}
);
note = uni081A;
unicode = 081A;
},
{
glyphname = uni0824;
lastChange = "2016-11-10 17:37:31 +0000";
layers = (
{
layerId = "4E00A5E8-150E-4B16-AABA-1F51DF776701";
paths = (
{
closed = 1;
nodes = (
"246 1680 OFFCURVE",
"384 1919 OFFCURVE",
"431 2091 CURVE",
"236 2063 LINE",
"201 1907 OFFCURVE",
"109 1688 OFFCURVE",
"24 1548 CURVE",
"90 1521 LINE"
);
}
);
width = 469;
}
);
note = uni0824;
unicode = 0824;
},
{
glyphname = uni0828;
lastChange = "2016-11-10 17:39:38 +0000";
layers = (
{
layerId = "4E00A5E8-150E-4B16-AABA-1F51DF776701";
paths = (
{
closed = 1;
nodes = (
"479 1642 LINE",
"356 1718 OFFCURVE",
"255 1758 OFFCURVE",
"172 1765 CURVE",
"238 1787 LINE SMOOTH",
"334 1819 OFFCURVE",
"419 1855 OFFCURVE",
"467 1891 CURVE",
"424 1972 LINE",
"365 1928 OFFCURVE",
"241 1869 OFFCURVE",
"54 1801 CURVE",
"27 1695 LINE",
"236 1631 OFFCURVE",
"339 1579 OFFCURVE",
"412 1522 CURVE"
);
}
);
width = 506;
}
);
note = uni0828;
unicode = 0828;
},
{
glyphname = uni2E31;
lastChange = "2016-11-10 17:39:38 +0000";
layers = (
{
layerId = "4E00A5E8-150E-4B16-AABA-1F51DF776701";
paths = (
{
closed = 1;
nodes = (
"509 598 OFFCURVE",
"573 654 OFFCURVE",
"581 750 CURVE",
"581 850 OFFCURVE",
"528 902 OFFCURVE",
"448 902 CURVE SMOOTH",
"355 902 OFFCURVE",
"289 837 OFFCURVE",
"289 730 CURVE SMOOTH",
"289 646 OFFCURVE",
"335 598 OFFCURVE",
"424 598 CURVE SMOOTH"
);
}
);
width = 871;
}
);
note = uni2E31;
unicode = 2E31;
},
{
glyphname = uni0830;
lastChange = "2016-11-10 17:39:38 +0000";
layers = (
{
layerId = "4E00A5E8-150E-4B16-AABA-1F51DF776701";
paths = (
{
closed = 1;
nodes = (
"535 782 LINE",
"338 918 LINE",
"200 715 LINE",
"404 577 LINE"
);
}
);
width = 735;
}
);
note = uni0830;
unicode = 0830;
},
{
glyphname = uni0831;
lastChange = "2016-11-10 17:39:38 +0000";
layers = (
{
layerId = "4E00A5E8-150E-4B16-AABA-1F51DF776701";
paths = (
{
closed = 1;
nodes = (
"535 1128 LINE",
"338 1263 LINE",
"200 1061 LINE",
"404 923 LINE"
);
},
{
closed = 1;
nodes = (
"535 360 LINE",
"338 495 LINE",
"200 293 LINE",
"404 155 LINE"
);
}
);
width = 735;
}
);
note = uni0831;
unicode = 0831;
},
{
glyphname = uni0832;
lastChange = "2016-11-10 17:39:38 +0000";
layers = (
{
layerId = "4E00A5E8-150E-4B16-AABA-1F51DF776701";
paths = (
{
closed = 1;
nodes = (
"1011 1268 LINE",
"814 1404 LINE",
"676 1201 LINE",
"879 1063 LINE"
);
},
{
closed = 1;
nodes = (
"535 1268 LINE",
"338 1404 LINE",
"200 1201 LINE",
"403 1063 LINE"
);
}
);
width = 1211;
}
);
note = uni0832;
unicode = 0832;
},
{
glyphname = uni0833;
lastChange = "2016-11-10 17:39:38 +0000";
layers = (
{
layerId = "4E00A5E8-150E-4B16-AABA-1F51DF776701";
paths = (
{
closed = 1;
nodes = (
"762 208 OFFCURVE",
"822 297 OFFCURVE",
"822 482 CURVE SMOOTH",
"822 592 OFFCURVE",
"750 719 OFFCURVE",
"607 864 CURVE SMOOTH",
"464 1008 OFFCURVE",
"385 1088 OFFCURVE",
"370 1103 CURVE",
"391 1114 OFFCURVE",
"423 1119 OFFCURVE",
"468 1119 CURVE SMOOTH",
"525 1119 OFFCURVE",
"609 1103 OFFCURVE",
"719 1071 CURVE SMOOTH",
"828 1039 OFFCURVE",
"928 1023 OFFCURVE",
"1017 1023 CURVE SMOOTH",
"1068 1023 OFFCURVE",
"1107 1026 OFFCURVE",
"1134 1031 CURVE",
"1173 1256 LINE",
"1141 1248 OFFCURVE",
"1090 1244 OFFCURVE",
"1019 1244 CURVE SMOOTH",
"946 1244 OFFCURVE",
"855 1249 OFFCURVE",
"744 1259 CURVE SMOOTH",
"633 1268 OFFCURVE",
"531 1273 OFFCURVE",
"439 1273 CURVE SMOOTH",
"344 1273 OFFCURVE",
"264 1257 OFFCURVE",
"200 1226 CURVE",
"235 1096 LINE",
"252 1074 OFFCURVE",
"300 1026 OFFCURVE",
"379 951 CURVE SMOOTH",
"536 802 OFFCURVE",
"635 661 OFFCURVE",
"635 553 CURVE SMOOTH",
"635 453 OFFCURVE",
"599 392 OFFCURVE",
"492 331 CURVE",
"638 121 LINE"
);
},
{
closed = 1;
nodes = (
"1591 1128 LINE",
"1394 1263 LINE",
"1256 1061 LINE",
"1460 923 LINE"
);
}
);
width = 1791;
}
);
note = uni0833;
unicode = 0833;
},
{
glyphname = uni0834;
lastChange = "2016-11-10 17:39:38 +0000";
layers = (
{
layerId = "4E00A5E8-150E-4B16-AABA-1F51DF776701";
paths = (
{
closed = 1;
nodes = (
"762 208 OFFCURVE",
"822 297 OFFCURVE",
"822 482 CURVE SMOOTH",
"822 592 OFFCURVE",
"750 719 OFFCURVE",
"607 864 CURVE SMOOTH",
"464 1008 OFFCURVE",
"385 1088 OFFCURVE",
"370 1103 CURVE",
"391 1114 OFFCURVE",
"423 1119 OFFCURVE",
"468 1119 CURVE SMOOTH",
"525 1119 OFFCURVE",
"609 1103 OFFCURVE",
"719 1071 CURVE SMOOTH",
"828 1039 OFFCURVE",
"928 1023 OFFCURVE",
"1017 1023 CURVE SMOOTH",
"1068 1023 OFFCURVE",
"1107 1026 OFFCURVE",
"1134 1031 CURVE",
"1173 1256 LINE",
"1141 1248 OFFCURVE",
"1090 1244 OFFCURVE",
"1019 1244 CURVE SMOOTH",
"946 1244 OFFCURVE",
"855 1249 OFFCURVE",
"744 1259 CURVE SMOOTH",
"633 1268 OFFCURVE",
"531 1273 OFFCURVE",
"439 1273 CURVE SMOOTH",
"344 1273 OFFCURVE",
"264 1257 OFFCURVE",
"200 1226 CURVE",
"235 1096 LINE",
"252 1074 OFFCURVE",
"300 1026 OFFCURVE",
"379 951 CURVE SMOOTH",
"536 802 OFFCURVE",
"635 661 OFFCURVE",
"635 553 CURVE SMOOTH",
"635 453 OFFCURVE",
"599 392 OFFCURVE",
"492 331 CURVE",
"638 121 LINE"
);
},
{
closed = 1;
nodes = (
"1591 360 LINE",
"1394 495 LINE",
"1256 293 LINE",
"1460 155 LINE"
);
},
{
closed = 1;
nodes = (
"1591 1128 LINE",
"1394 1263 LINE",
"1256 1061 LINE",
"1460 923 LINE"
);
}
);
width = 1791;
}
);
note = uni0834;
unicode = 0834;
},
{
glyphname = uni0835;
lastChange = "2016-11-10 17:39:38 +0000";
layers = (
{
layerId = "4E00A5E8-150E-4B16-AABA-1F51DF776701";
paths = (
{
closed = 1;
nodes = (
"970 281 LINE",
"809 316 OFFCURVE",
"675 358 OFFCURVE",
"570 407 CURVE SMOOTH",
"464 456 OFFCURVE",
"411 499 OFFCURVE",
"411 537 CURVE SMOOTH",
"411 578 OFFCURVE",
"455 613 OFFCURVE",
"543 641 CURVE SMOOTH",
"630 669 OFFCURVE",
"757 688 OFFCURVE",
"924 699 CURVE",
"907 832 LINE",
"630 821 OFFCURVE",
"431 768 OFFCURVE",
"326 701 CURVE SMOOTH",
"221 633 OFFCURVE",
"200 533 OFFCURVE",
"200 490 CURVE SMOOTH",
"200 435 OFFCURVE",
"238 379 OFFCURVE",
"314 322 CURVE SMOOTH",
"466 209 OFFCURVE",
"828 88 OFFCURVE",
"985 69 CURVE"
);
},
{
closed = 1;
nodes = (
"544 1121 LINE",
"386 1230 LINE",
"276 1068 LINE",
"438 957 LINE"
);
},
{
closed = 1;
nodes = (
"875 1121 LINE",
"717 1230 LINE",
"607 1068 LINE",
"769 957 LINE"
);
}
);
width = 1185;
}
);
note = uni0835;
unicode = 0835;
},
{
glyphname = uni0836;
lastChange = "2016-11-10 17:39:38 +0000";
layers = (
{
layerId = "4E00A5E8-150E-4B16-AABA-1F51DF776701";
paths = (
{
closed = 1;
nodes = (
"524 -19 OFFCURVE",
"623 -14 OFFCURVE",
"735 -4 CURVE SMOOTH",
"846 5 OFFCURVE",
"941 10 OFFCURVE",
"1019 10 CURVE SMOOTH",
"1090 10 OFFCURVE",
"1141 6 OFFCURVE",
"1173 -2 CURVE",
"1134 223 LINE",
"1107 228 OFFCURVE",
"1068 231 OFFCURVE",
"1017 231 CURVE SMOOTH",
"928 231 OFFCURVE",
"828 215 OFFCURVE",
"719 183 CURVE SMOOTH",
"609 151 OFFCURVE",
"525 135 OFFCURVE",
"468 135 CURVE SMOOTH",
"423 135 OFFCURVE",
"391 140 OFFCURVE",
"370 151 CURVE",
"417 200 OFFCURVE",
"472 256 OFFCURVE",
"537 318 CURVE SMOOTH",
"666 442 OFFCURVE",
"733 543 OFFCURVE",
"733 678 CURVE SMOOTH",
"733 825 OFFCURVE",
"677 901 OFFCURVE",
"577 977 CURVE",
"431 771 LINE",
"523 715 OFFCURVE",
"546 671 OFFCURVE",
"546 590 CURVE SMOOTH",
"546 507 OFFCURVE",
"496 417 OFFCURVE",
"396 318 CURVE SMOOTH",
"295 219 OFFCURVE",
"242 166 OFFCURVE",
"235 158 CURVE",
"200 28 LINE",
"264 -3 OFFCURVE",
"344 -19 OFFCURVE",
"439 -19 CURVE SMOOTH"
);
},
{
closed = 1;
nodes = (
"735 1268 LINE",
"538 1404 LINE",
"400 1201 LINE",
"603 1063 LINE"
);
}
);
width = 1373;
}
);
note = uni0836;
unicode = 0836;
},
{
glyphname = uni0837;
lastChange = "2016-11-10 17:37:31 +0000";
layers = (
{
layerId = "4E00A5E8-150E-4B16-AABA-1F51DF776701";
paths = (
{
closed = 1;
nodes = (
"2070 208 OFFCURVE",
"2130 297 OFFCURVE",
"2130 482 CURVE SMOOTH",
"2130 592 OFFCURVE",
"2058 719 OFFCURVE",
"1915 864 CURVE SMOOTH",
"1772 1008 OFFCURVE",
"1693 1088 OFFCURVE",
"1678 1103 CURVE",
"1699 1114 OFFCURVE",
"1731 1119 OFFCURVE",
"1776 1119 CURVE SMOOTH",
"1833 1119 OFFCURVE",
"1917 1103 OFFCURVE",
"2027 1071 CURVE SMOOTH",
"2136 1039 OFFCURVE",
"2236 1023 OFFCURVE",
"2325 1023 CURVE SMOOTH",
"2376 1023 OFFCURVE",
"2415 1026 OFFCURVE",
"2442 1031 CURVE",
"2481 1256 LINE",
"2449 1248 OFFCURVE",
"2398 1244 OFFCURVE",
"2327 1244 CURVE SMOOTH",
"2254 1244 OFFCURVE",
"2163 1249 OFFCURVE",
"2052 1259 CURVE SMOOTH",
"1941 1268 OFFCURVE",
"1839 1273 OFFCURVE",
"1747 1273 CURVE SMOOTH",
"1652 1273 OFFCURVE",
"1572 1257 OFFCURVE",
"1508 1226 CURVE",
"1543 1096 LINE",
"1560 1074 OFFCURVE",
"1608 1026 OFFCURVE",
"1687 951 CURVE SMOOTH",
"1844 802 OFFCURVE",
"1943 661 OFFCURVE",
"1943 553 CURVE SMOOTH",
"1943 453 OFFCURVE",
"1907 392 OFFCURVE",
"1800 331 CURVE",
"1946 121 LINE"
);
},
{
closed = 1;
nodes = (
"1532 656 LINE",
"1561 834 LINE",
"229 834 LINE",
"200 656 LINE"
);
}
);
width = 2681;
}
);
note = uni0837;
unicode = 0837;
},
{
glyphname = uni0838;
lastChange = "2016-11-10 17:39:38 +0000";
layers = (
{
layerId = "4E00A5E8-150E-4B16-AABA-1F51DF776701";
paths = (
{
closed = 1;
nodes = (
"1532 656 LINE",
"1561 834 LINE",
"229 834 LINE",
"200 656 LINE"
);
},
{
closed = 1;
nodes = (
"2001 782 LINE",
"1804 918 LINE",
"1666 715 LINE",
"1870 577 LINE"
);
}
);
width = 2201;
}
);
note = uni0838;
unicode = 0838;
},
{
glyphname = uni0839;
lastChange = "2016-11-10 17:39:38 +0000";
layers = (
{
layerId = "4E00A5E8-150E-4B16-AABA-1F51DF776701";
paths = (
{
closed = 1;
nodes = (
"1532 656 LINE",
"1561 834 LINE",
"229 834 LINE",
"200 656 LINE"
);
},
{
closed = 1;
nodes = (
"1979 360 LINE",
"1782 495 LINE",
"1644 293 LINE",
"1848 155 LINE"
);
},
{
closed = 1;
nodes = (
"1979 1128 LINE",
"1782 1263 LINE",
"1644 1061 LINE",
"1848 923 LINE"
);
}
);
width = 2179;
}
);
note = uni0839;
unicode = 0839;
},
{
glyphname = uni083A;
lastChange = "2016-11-10 17:39:38 +0000";
layers = (
{
layerId = "4E00A5E8-150E-4B16-AABA-1F51DF776701";
paths = (
{
closed = 1;
nodes = (
"1532 856 LINE",
"1561 1034 LINE",
"229 1034 LINE",
"200 856 LINE"
);
},
{
closed = 1;
nodes = (
"1532 406 LINE",
"1561 584 LINE",
"229 584 LINE",
"200 406 LINE"
);
},
{
closed = 1;
nodes = (
"1979 360 LINE",
"1782 495 LINE",
"1644 293 LINE",
"1848 155 LINE"
);
},
{
closed = 1;
nodes = (
"1979 1128 LINE",
"1782 1263 LINE",
"1644 1061 LINE",
"1848 923 LINE"
);
}
);
width = 2179;
}
);
note = uni083A;
unicode = 083A;
},
{
glyphname = uni083B;
lastChange = "2016-11-10 17:39:38 +0000";
layers = (
{
layerId = "4E00A5E8-150E-4B16-AABA-1F51DF776701";
paths = (
{
closed = 1;
nodes = (
"373 173 LINE",
"373 1248 LINE",
"200 1248 LINE",
"200 173 LINE"
);
},
{
closed = 1;
nodes = (
"829 360 LINE",
"632 495 LINE",
"494 293 LINE",
"698 155 LINE"
);
},
{
closed = 1;
nodes = (
"829 1128 LINE",
"632 1263 LINE",
"494 1061 LINE",
"698 923 LINE"
);
}
);
width = 1029;
}
);
note = uni083B;
unicode = 083B;
},
{
glyphname = uni083C;
lastChange = "2016-11-10 17:39:38 +0000";
layers = (
{
layerId = "4E00A5E8-150E-4B16-AABA-1F51DF776701";
paths = (
{
closed = 1;
nodes = (
"1062 1246 LINE",
"926 1353 LINE",
"200 409 LINE",
"337 302 LINE"
);
}
);
width = 1262;
}
);
note = uni083C;
unicode = 083C;
},
{
glyphname = uni083D;
lastChange = "2016-11-10 17:39:38 +0000";
layers = (
{
layerId = "4E00A5E8-150E-4B16-AABA-1F51DF776701";
paths = (
{
closed = 1;
nodes = (
"1062 1246 LINE",
"926 1353 LINE",
"200 409 LINE",
"337 302 LINE"
);
},
{
closed = 1;
nodes = (
"1018 511 LINE",
"820 647 LINE",
"682 442 LINE",
"887 306 LINE"
);
},
{
closed = 1;
nodes = (
"1451 526 LINE",
"1252 661 LINE",
"1115 458 LINE",
"1319 320 LINE"
);
},
{
closed = 1;
nodes = (
"1228 843 LINE",
"1032 979 LINE",
"893 776 LINE",
"1097 638 LINE"
);
}
);
width = 1651;
}
);
note = uni083D;
unicode = 083D;
},
{
glyphname = uni083E;
lastChange = "2016-11-10 17:39:38 +0000";
layers = (
{
layerId = "4E00A5E8-150E-4B16-AABA-1F51DF776701";
paths = (
{
closed = 1;
nodes = (
"560 518 OFFCURVE",
"671 633 OFFCURVE",
"671 776 CURVE SMOOTH",
"671 899 OFFCURVE",
"580 983 OFFCURVE",
"451 983 CURVE SMOOTH",
"307 983 OFFCURVE",
"200 883 OFFCURVE",
"200 728 CURVE SMOOTH",
"200 600 OFFCURVE",
"284 518 OFFCURVE",
"416 518 CURVE SMOOTH"
);
},
{
closed = 1;
nodes = (
"352 630 OFFCURVE",
"316 665 OFFCURVE",
"316 736 CURVE SMOOTH",
"316 821 OFFCURVE",
"368 874 OFFCURVE",
"443 874 CURVE SMOOTH",
"507 874 OFFCURVE",
"550 832 OFFCURVE",
"550 752 CURVE",
"543 675 OFFCURVE",
"493 630 OFFCURVE",
"424 630 CURVE SMOOTH"
);
}
);
width = 871;
}
);
note = uni083E;
unicode = 083E;
},
{
glyphname = .notdef;
lastChange = "2016-11-10 17:39:38 +0000";
layers = (
{
layerId = "4E00A5E8-150E-4B16-AABA-1F51DF776701";
paths = (
{
closed = 1;
nodes = (
"922 0 LINE",
"922 1462 LINE",
"102 1462 LINE",
"102 0 LINE"
);
},
{
closed = 1;
nodes = (
"201 1364 LINE",
"823 1364 LINE",
"823 98 LINE",
"201 98 LINE"
);
}
);
width = 1024;
}
);
note = .notdef;
},
{
glyphname = uni0816;
lastChange = "2016-11-10 17:39:38 +0000";
layers = (
{
layerId = "4E00A5E8-150E-4B16-AABA-1F51DF776701";
paths = (
{
closed = 1;
nodes = (
"487 1620 OFFCURVE",
"547 1663 OFFCURVE",
"608 1735 CURVE",
"534 1811 LINE",
"495 1771 OFFCURVE",
"460 1735 OFFCURVE",
"408 1735 CURVE SMOOTH",
"364 1735 OFFCURVE",
"324 1762 OFFCURVE",
"324 1803 CURVE SMOOTH",
"324 1809 LINE",
"327 1870 OFFCURVE",
"360 1881 OFFCURVE",
"384 1898 CURVE",
"310 1975 LINE",
"262 1932 OFFCURVE",
"241 1914 OFFCURVE",
"206 1914 CURVE SMOOTH",
"153 1914 OFFCURVE",
"122 1944 OFFCURVE",
"122 1988 CURVE SMOOTH",
"122 1993 LINE",
"125 2022 OFFCURVE",
"162 2082 OFFCURVE",
"190 2098 CURVE",
"100 2176 LINE",
"41 2129 OFFCURVE",
"1 2065 OFFCURVE",
"1 1998 CURVE SMOOTH",
"1 1902 OFFCURVE",
"72 1828 OFFCURVE",
"199 1817 CURVE",
"197 1801 LINE",
"197 1693 OFFCURVE",
"288 1620 OFFCURVE",
"407 1620 CURVE SMOOTH"
);
}
);
width = 0;
}
);
note = uni0816;
unicode = 0816;
},
{
glyphname = uni0817;
lastChange = "2016-11-10 17:39:38 +0000";
layers = (
{
layerId = "4E00A5E8-150E-4B16-AABA-1F51DF776701";
paths = (
{
closed = 1;
nodes = (
"301 1620 OFFCURVE",
"370 1638 OFFCURVE",
"441 1670 CURVE",
"419 1738 LINE",
"398 1736 LINE",
"342 1736 OFFCURVE",
"323 1768 OFFCURVE",
"323 1800 CURVE SMOOTH",
"323 1827 OFFCURVE",
"345 1862 OFFCURVE",
"384 1874 CURVE",
"353 1971 LINE",
"253 1935 OFFCURVE",
"203 1877 OFFCURVE",
"203 1797 CURVE SMOOTH",
"203 1762 OFFCURVE",
"212 1738 OFFCURVE",
"231 1707 CURVE",
"227 1707 LINE SMOOTH",
"155 1707 OFFCURVE",
"119 1754 OFFCURVE",
"119 1870 CURVE SMOOTH",
"119 1931 OFFCURVE",
"129 2012 OFFCURVE",
"144 2091 CURVE SMOOTH",
"157 2158 LINE",
"29 2180 LINE",
"10 2108 OFFCURVE",
"0 1981 OFFCURVE",
"0 1902 CURVE SMOOTH",
"0 1722 OFFCURVE",
"78 1620 OFFCURVE",
"230 1620 CURVE SMOOTH"
);
}
);
width = 0;
}
);
note = uni0817;
unicode = 0817;
},
{
glyphname = uni0818;
lastChange = "2016-11-10 17:37:31 +0000";
layers = (
{
layerId = "4E00A5E8-150E-4B16-AABA-1F51DF776701";
paths = (
{
closed = 1;
nodes = (
"1315 1620 LINE",
"1337 1750 LINE",
"22 1750 LINE",
"0 1620 LINE"
);
}
);
width = 0;
}
);
note = uni0818;
unicode = 0818;
},
{
glyphname = uni0819;
lastChange = "2016-11-10 17:39:38 +0000";
layers = (
{
layerId = "4E00A5E8-150E-4B16-AABA-1F51DF776701";
paths = (
{
closed = 1;
nodes = (
"102 1657 OFFCURVE",
"306 1740 OFFCURVE",
"434 1779 CURVE",
"458 1891 LINE",
"377 1914 OFFCURVE",
"146 2023 OFFCURVE",
"74 2082 CURVE",
"17 1987 LINE",
"106 1932 OFFCURVE",
"223 1879 OFFCURVE",
"310 1852 CURVE",
"203 1824 OFFCURVE",
"136 1799 OFFCURVE",
"80 1770 CURVE SMOOTH",
"19 1737 LINE",
"9 1605 LINE"
);
}
);
width = 0;
}
);
note = uni0819;
unicode = 0819;
},
{
glyphname = uni081B;
lastChange = "2016-11-10 17:39:38 +0000";
layers = (
{
layerId = "4E00A5E8-150E-4B16-AABA-1F51DF776701";
paths = (
{
closed = 1;
nodes = (
"157 1692 OFFCURVE",
"181 1725 OFFCURVE",
"240 1725 CURVE SMOOTH",
"284 1725 OFFCURVE",
"336 1708 OFFCURVE",
"397 1673 CURVE SMOOTH",
"457 1638 OFFCURVE",
"506 1620 OFFCURVE",
"543 1620 CURVE SMOOTH",
"648 1620 OFFCURVE",
"734 1681 OFFCURVE",
"766 1802 CURVE",
"623 1862 LINE",
"604 1790 OFFCURVE",
"579 1756 OFFCURVE",
"523 1756 CURVE SMOOTH",
"482 1756 OFFCURVE",
"430 1773 OFFCURVE",
"368 1808 CURVE SMOOTH",
"306 1843 OFFCURVE",
"255 1860 OFFCURVE",
"216 1860 CURVE SMOOTH",
"100 1860 OFFCURVE",
"27 1795 OFFCURVE",
"0 1680 CURVE",
"140 1620 LINE"
);
}
);
width = 0;
}
);
note = uni081B;
unicode = 081B;
},
{
glyphname = uni081C;
lastChange = "2016-11-10 17:37:31 +0000";
layers = (
{
layerId = "4E00A5E8-150E-4B16-AABA-1F51DF776701";
paths = (
{
closed = 1;
nodes = (
"-220 1742 OFFCURVE",
"-122 1902 OFFCURVE",
"-3 2035 CURVE",
"-109 2113 LINE",
"-189 2018 OFFCURVE",
"-259 1910 OFFCURVE",
"-312 1787 CURVE",
"-352 1920 OFFCURVE",
"-384 2005 OFFCURVE",
"-465 2142 CURVE",
"-631 2072 LINE",
"-539 1956 OFFCURVE",
"-459 1797 OFFCURVE",
"-398 1630 CURVE",
"-276 1599 LINE"
);
}
);
width = 0;
}
);
note = uni081C;
unicode = 081C;
},
{
glyphname = uni081D;
lastChange = "2016-11-10 17:37:31 +0000";
layers = (
{
layerId = "4E00A5E8-150E-4B16-AABA-1F51DF776701";
paths = (
{
closed = 1;
nodes = (
"-220 1732 OFFCURVE",
"-138 1854 OFFCURVE",
"-50 1953 CURVE",
"-135 2016 LINE",
"-184 1959 OFFCURVE",
"-250 1863 OFFCURVE",
"-297 1754 CURVE",
"-334 1885 OFFCURVE",
"-361 1937 OFFCURVE",
"-420 2038 CURVE",
"-552 1983 LINE",
"-479 1891 OFFCURVE",
"-414 1763 OFFCURVE",
"-366 1630 CURVE",
"-269 1605 LINE"
);
}
);
width = 0;
}
);
note = uni081D;
unicode = 081D;
},
{
glyphname = uni081E;
lastChange = "2016-11-10 17:39:38 +0000";
layers = (
{
layerId = "4E00A5E8-150E-4B16-AABA-1F51DF776701";
paths = (
{
closed = 1;
nodes = (
"-75 1620 LINE",
"-47 1764 OFFCURVE",
"-30 1917 OFFCURVE",
"-30 2041 CURVE SMOOTH",
"-30 2086 OFFCURVE",
"-32 2128 OFFCURVE",
"-37 2167 CURVE",
"-243 2132 LINE",
"-216 2036 OFFCURVE",
"-191 1841 OFFCURVE",
"-191 1685 CURVE SMOOTH",
"-191 1656 OFFCURVE",
"-192 1632 OFFCURVE",
"-194 1611 CURVE"
);
}
);
width = 0;
}
);
note = uni081E;
unicode = 081E;
},
{
glyphname = uni081F;
lastChange = "2016-11-10 17:39:38 +0000";
layers = (
{
layerId = "4E00A5E8-150E-4B16-AABA-1F51DF776701";
paths = (
{
closed = 1;
nodes = (
"-68 1620 LINE",
"-44 1744 OFFCURVE",
"-30 1870 OFFCURVE",
"-30 1987 CURVE SMOOTH",
"-30 2026 OFFCURVE",
"-31 2061 OFFCURVE",
"-36 2096 CURVE",
"-212 2065 LINE",
"-189 1985 OFFCURVE",
"-168 1804 OFFCURVE",
"-168 1676 CURVE SMOOTH",
"-168 1665 OFFCURVE",
"-168 1654 OFFCURVE",
"-169 1643 CURVE SMOOTH",
"-170 1632 OFFCURVE",
"-170 1621 OFFCURVE",
"-170 1612 CURVE"
);
}
);
width = 0;
}
);
note = uni081F;
unicode = 081F;
},
{
glyphname = uni0820;
lastChange = "2016-11-10 17:39:38 +0000";
layers = (
{
layerId = "4E00A5E8-150E-4B16-AABA-1F51DF776701";
paths = (
{
closed = 1;
nodes = (
"-63 1620 LINE",
"-42 1731 OFFCURVE",
"-30 1850 OFFCURVE",
"-30 1935 CURVE SMOOTH",
"-30 1968 OFFCURVE",
"-31 1999 OFFCURVE",
"-35 2030 CURVE",
"-188 2003 LINE",
"-168 1935 OFFCURVE",
"-149 1781 OFFCURVE",
"-149 1669 CURVE SMOOTH",
"-149 1648 OFFCURVE",
"-150 1630 OFFCURVE",
"-152 1613 CURVE"
);
}
);
width = 0;
}
);
note = uni0820;
unicode = 0820;
},
{
glyphname = uni0821;
lastChange = "2016-11-10 17:37:31 +0000";
layers = (
{
layerId = "4E00A5E8-150E-4B16-AABA-1F51DF776701";
paths = (
{
closed = 1;
nodes = (
"-23 1620 LINE",
"-1 1750 LINE",
"-825 1750 LINE",
"-847 1620 LINE"
);
}
);
width = 0;
}
);
note = uni0821;
unicode = 0821;
},
{
glyphname = uni0822;
lastChange = "2016-11-10 17:37:31 +0000";
layers = (
{
layerId = "4E00A5E8-150E-4B16-AABA-1F51DF776701";
paths = (
{
closed = 1;
nodes = (
"-19 1620 LINE",
"0 1736 LINE",
"-674 1736 LINE",
"-693 1620 LINE"
);
}
);
width = 0;
}
);
note = uni0822;
unicode = 0822;
},
{
glyphname = uni0823;
lastChange = "2016-11-10 17:37:31 +0000";
layers = (
{
layerId = "4E00A5E8-150E-4B16-AABA-1F51DF776701";
paths = (
{
closed = 1;
nodes = (
"-47 1620 LINE",
"-30 1720 LINE",
"-569 1720 LINE",
"-585 1620 LINE"
);
}
);
width = 0;
}
);
note = uni0823;
unicode = 0823;
},
{
glyphname = uni0825;
lastChange = "2016-11-10 17:37:31 +0000";
layers = (
{
layerId = "4E00A5E8-150E-4B16-AABA-1F51DF776701";
paths = (
{
closed = 1;
nodes = (
"-185 1762 OFFCURVE",
"-47 2001 OFFCURVE",
"0 2173 CURVE",
"-195 2145 LINE",
"-230 1989 OFFCURVE",
"-322 1770 OFFCURVE",
"-407 1630 CURVE",
"-341 1603 LINE"
);
}
);
width = 0;
}
);
note = uni0825;
unicode = 0825;
},
{
glyphname = uni0826;
lastChange = "2016-11-10 17:39:38 +0000";
layers = (
{
layerId = "4E00A5E8-150E-4B16-AABA-1F51DF776701";
paths = (
{
closed = 1;
nodes = (
"-381 1735 OFFCURVE",
"-346 1825 OFFCURVE",
"-309 1953 CURVE",
"-256 1830 OFFCURVE",
"-186 1722 OFFCURVE",
"-106 1627 CURVE",
"0 1705 LINE",
"-119 1838 OFFCURVE",
"-217 1998 OFFCURVE",
"-273 2141 CURVE",
"-395 2110 LINE",
"-456 1943 OFFCURVE",
"-536 1784 OFFCURVE",
"-628 1668 CURVE",
"-462 1598 LINE"
);
}
);
width = 0;
}
);
note = uni0826;
unicode = 0826;
},
{
glyphname = uni0827;
lastChange = "2016-11-10 17:39:38 +0000";
layers = (
{
layerId = "4E00A5E8-150E-4B16-AABA-1F51DF776701";
paths = (
{
closed = 1;
nodes = (
"-370 1727 OFFCURVE",
"-345 1792 OFFCURVE",
"-317 1891 CURVE",
"-281 1803 OFFCURVE",
"-212 1696 OFFCURVE",
"-155 1629 CURVE",
"-70 1692 LINE",
"-166 1803 OFFCURVE",
"-243 1920 OFFCURVE",
"-288 2040 CURVE",
"-386 2016 LINE",
"-434 1883 OFFCURVE",
"-499 1755 OFFCURVE",
"-572 1663 CURVE",
"-439 1607 LINE"
);
}
);
width = 0;
}
);
note = uni0827;
unicode = 0827;
},
{
glyphname = uni0829;
lastChange = "2016-11-10 17:39:38 +0000";
layers = (
{
layerId = "4E00A5E8-150E-4B16-AABA-1F51DF776701";
paths = (
{
closed = 1;
nodes = (
"-26 1748 LINE",
"-173 1840 OFFCURVE",
"-302 1888 OFFCURVE",
"-406 1895 CURVE",
"-323 1924 LINE SMOOTH",
"-199 1965 OFFCURVE",
"-96 2009 OFFCURVE",
"-37 2053 CURVE",
"-94 2155 LINE",
"-128 2129 OFFCURVE",
"-180 2099 OFFCURVE",
"-250 2066 CURVE SMOOTH",
"-320 2032 OFFCURVE",
"-417 1992 OFFCURVE",
"-542 1947 CURVE",
"-576 1813 LINE",
"-383 1756 OFFCURVE",
"-219 1681 OFFCURVE",
"-110 1594 CURVE"
);
}
);
width = 0;
}
);
note = uni0829;
unicode = 0829;
},
{
glyphname = uni082A;
lastChange = "2016-11-10 17:39:38 +0000";
layers = (
{
layerId = "4E00A5E8-150E-4B16-AABA-1F51DF776701";
paths = (
{
closed = 1;
nodes = (
"-42 1740 LINE",
"-165 1816 OFFCURVE",
"-266 1856 OFFCURVE",
"-349 1863 CURVE",
"-283 1885 LINE SMOOTH",
"-187 1917 OFFCURVE",
"-102 1953 OFFCURVE",
"-54 1989 CURVE",
"-97 2070 LINE",
"-156 2026 OFFCURVE",
"-280 1967 OFFCURVE",
"-467 1899 CURVE",
"-494 1793 LINE",
"-285 1729 OFFCURVE",
"-182 1677 OFFCURVE",
"-109 1620 CURVE"
);
}
);
width = 0;
}
);
note = uni082A;
unicode = 082A;
},
{
glyphname = uni082B;
lastChange = "2016-11-10 17:39:38 +0000";
layers = (
{
layerId = "4E00A5E8-150E-4B16-AABA-1F51DF776701";
paths = (
{
closed = 1;
nodes = (
"2 1678 LINE",
"-103 1797 OFFCURVE",
"-236 2011 OFFCURVE",
"-300 2175 CURVE",
"-371 2155 LINE",
"-427 2004 OFFCURVE",
"-523 1829 OFFCURVE",
"-670 1618 CURVE",
"-259 1591 LINE",
"-106 1579 LINE SMOOTH",
"-96 1578 OFFCURVE",
"-88 1576 OFFCURVE",
"-82 1574 CURVE"
);
},
{
closed = 1;
nodes = (
"-461 1701 LINE",
"-421 1770 OFFCURVE",
"-352 1905 OFFCURVE",
"-319 2004 CURVE",
"-295 1944 OFFCURVE",
"-257 1869 OFFCURVE",
"-201 1769 CURVE SMOOTH",
"-156 1687 LINE"
);
}
);
width = 0;
}
);
note = uni082B;
unicode = 082B;
},
{
glyphname = uni082C;
lastChange = "2016-11-10 17:39:38 +0000";
layers = (
{
layerId = "4E00A5E8-150E-4B16-AABA-1F51DF776701";
paths = (
{
closed = 1;
nodes = (
"356 1675 OFFCURVE",
"463 1788 OFFCURVE",
"463 1925 CURVE SMOOTH",
"463 2044 OFFCURVE",
"374 2126 OFFCURVE",
"250 2126 CURVE SMOOTH",
"106 2126 OFFCURVE",
"6 2026 OFFCURVE",
"6 1879 CURVE SMOOTH",
"6 1754 OFFCURVE",
"89 1675 OFFCURVE",
"216 1675 CURVE SMOOTH"
);
},
{
closed = 1;
nodes = (
"154 1784 OFFCURVE",
"119 1821 OFFCURVE",
"119 1886 CURVE SMOOTH",
"119 1970 OFFCURVE",
"170 2020 OFFCURVE",
"242 2020 CURVE SMOOTH",
"305 2020 OFFCURVE",
"346 1981 OFFCURVE",
"346 1902 CURVE",
"339 1826 OFFCURVE",
"290 1784 OFFCURVE",
"223 1784 CURVE SMOOTH"
);
}
);
width = 0;
}
);
note = uni082C;
unicode = 082C;
},
{
glyphname = uni082D;
lastChange = "2016-11-10 17:39:38 +0000";
layers = (
{
layerId = "4E00A5E8-150E-4B16-AABA-1F51DF776701";
paths = (
{
closed = 1;
nodes = (
"335 1825 LINE",
"138 1961 LINE",
"0 1758 LINE",
"203 1620 LINE"
);
}
);
width = 0;
}
);
note = uni082D;
unicode = 082D;
},
{
glyphname = g65;
lastChange = "2016-11-10 17:37:31 +0000";
layers = (
{
layerId = "4E00A5E8-150E-4B16-AABA-1F51DF776701";
paths = (
{
closed = 1;
nodes = (
"765 1620 LINE",
"787 1750 LINE",
"22 1750 LINE",
"0 1620 LINE"
);
}
